<svg id="Layer_1" data-name="Layer 1" xmlns="http://www.w3.org/2000/svg" viewBox="0 0 248.91 140.56"><defs><style>.cls-1{fill:#fff;fill-rule:evenodd;}</style></defs><title>ico_arrow_down</title><path class="cls-1" d="M1.09,69.36c.8-9.53,1.07-11.11,7.49-15l9.36-1.87L107.77,148l5.61-1.87c46.47-18.38,66.64-95.5,125.39-97.32,5.83,7.29,9.37,8.3,11.23,20.59-15.2,17.9-132.64,125.21-149.72,119.77C81.83,179.57,15.3,91.4,1.09,69.36Z" transform="translate(-1.09 -48.77)"/><path class="cls-1" d="M100.28,88.07l7.49-15c20.39.46,22,15.16,13.1,28.07L115.25,103c-8.3-1.9-7.52-1.24-11.23-7.49Z" transform="translate(-1.09 -48.77)"/></svg>