<svg id="Layer_1" data-name="Layer 1" xmlns="http://www.w3.org/2000/svg" viewBox="0 0 142 180.5">
    <title>Artboard 1</title>
    <path class="c-animated-map__route c-animated-map__route--1" d="M111.72,166.14c5.29-4.24,11.06-10.86,6-17" />
    <path class="c-animated-map__route c-animated-map__route--2" d="M106.34,142.76C90.68,139.23,71,149.49,55,145.62" />
    <path class="c-animated-map__route c-animated-map__route--3" d="M43.56,139.94c-15.75-11.7-30-37.62-31.86-62.43" />
    <path class="c-animated-map__route c-animated-map__route--4" d="M11.57,65.15c.44-20.55,3-25.23,9.46-36.54" />
    <path class="c-animated-map__route c-animated-map__route--5" d="M29.19,22.25c11.26,5.15,31.74,45,53.07,29.21" />
    <path class="c-animated-map__route c-animated-map__route--6" d="M91,43.08c17.29-17.14,31.54-26.64,38.45-30.75" />
    <g id="Layer_3" data-name="Layer 3">
        <!-- WAYPOINT 1 -->
        <circle class="c-animated-map__waypoint c-animated-map__waypoint--outer c-animated-map__waypoint--1" cx="130" cy="10.98" r="9.11" />
        <circle class="c-animated-map__waypoint c-animated-map__waypoint--inner c-animated-map__waypoint--1" cx="130" cy="10.98" r="6.26" />
        <!-- WAYPOINT 2 -->
        <circle class="c-animated-map__waypoint c-animated-map__waypoint--outer c-animated-map__waypoint--2" cx="73.15" cy="55.19" r="9.11" />
        <circle class="c-animated-map__waypoint c-animated-map__waypoint--inner c-animated-map__waypoint--2" cx="73.15" cy="55.19" r="6.26" />
        <!-- WAYPOINT 3 -->
        <circle class="c-animated-map__waypoint c-animated-map__waypoint--outer c-animated-map__waypoint--3" cx="26.46" cy="25.09" r="9.11" />
        <circle class="c-animated-map__waypoint c-animated-map__waypoint--inner c-animated-map__waypoint--3" cx="26.46" cy="25.09" r="6.26" />
       <!-- WAYPOINT 4 -->
        <circle class="c-animated-map__waypoint c-animated-map__waypoint--outer c-animated-map__waypoint--4" cx="11.7" cy="62.25" r="9.11" />
        <circle class="c-animated-map__waypoint c-animated-map__waypoint--inner c-animated-map__waypoint--4" cx="11.7" cy="62.25" r="6.26" />
        <!-- WAYPOINT 5 -->
        <circle class="c-animated-map__waypoint c-animated-map__waypoint--outer c-animated-map__waypoint--5" cx="106.94" cy="168.88" r="9.11" />
        <circle class="c-animated-map__waypoint c-animated-map__waypoint--inner c-animated-map__waypoint--5" cx="106.94" cy="168.88" r="6.26" />
    </g>
</svg>