<svg id="Layer_1" data-name="Layer 1" xmlns="http://www.w3.org/2000/svg" viewBox="0 0 142 180.5"><defs><style>.cls-1,.cls-2,.cls-3,.cls-4,.cls-5,.cls-6,.cls-7{fill:none;}.cls-1,.cls-2,.cls-3,.cls-4,.cls-5,.cls-6,.cls-7,.cls-8,.cls-9{stroke:#fff;}.cls-1,.cls-2,.cls-3,.cls-4,.cls-5,.cls-6,.cls-7,.cls-8{stroke-width:2px;}.cls-1{stroke-dasharray:6.67 4.67;}.cls-2{stroke-dasharray:6.4 4.4;}.cls-3{stroke-dasharray:6.29 4.29;}.cls-4{stroke-dasharray:6.05 4.05;}.cls-5{stroke-dasharray:5.87 3.87;}.cls-6{stroke-dasharray:6.14 4.14;}.cls-8,.cls-9{fill:#fff;stroke-miterlimit:10;}</style></defs><title>Artboard 1</title><path class="cls-1" d="M111.72,166.14c5.29-4.24,11.06-10.86,6-17"/><path class="cls-2" d="M106.34,142.76C90.68,139.23,71,149.49,55,145.62"/><path class="cls-3" d="M43.56,139.94c-15.75-11.7-30-37.62-31.86-62.43"/><path class="cls-4" d="M11.57,65.15c.44-20.55,3-25.23,9.46-36.54"/><path class="cls-5" d="M29.19,22.25c11.26,5.15,31.74,45,53.07,29.21"/><path class="cls-6" d="M91,43.08c17.29-17.14,31.54-26.64,38.45-30.75"/><path class="cls-7" d="M131.2,11.28c1.75-1,2.7-1.46,2.7-1.46M83.77,50.25q1.06-.92,2.13-2L88,46M22,26.86l1.48-2.64a5.13,5.13,0,0,1,2-2.13M11.57,75.37q-.07-1.58-.07-3.15t0-3M52.87,145a24.92,24.92,0,0,1-3-1.19q-1.39-.66-2.77-1.49m69,5.14a20.15,20.15,0,0,0-2.72-1.93,22.87,22.87,0,0,0-2.85-1.45m-5.43,26.53s1.17-.63,2.84-1.74"/><g id="Layer_3" data-name="Layer 3"><circle class="cls-8" cx="26.46" cy="25.09" r="9.11"/><circle class="cls-9" cx="26.46" cy="25.09" r="6.26"/><circle class="cls-8" cx="106.94" cy="168.88" r="9.11"/><circle class="cls-9" cx="106.94" cy="168.88" r="6.26"/><circle class="cls-8" cx="130" cy="10.98" r="9.11"/><circle class="cls-9" cx="130" cy="10.98" r="6.26"/><circle class="cls-8" cx="73.15" cy="55.19" r="9.11"/><circle class="cls-9" cx="73.15" cy="55.19" r="6.26"/><circle class="cls-8" cx="11.7" cy="62.25" r="9.11"/><circle class="cls-9" cx="11.7" cy="62.25" r="6.26"/></g></svg>